<svg xmlns="http://www.w3.org/2000/svg" width="512" height="512" viewBox="0 0 680 680">
<defs>
  <clipPath id="rc2">
    <rect x="40" y="40" width="600" height="600" rx="100"/>
  </clipPath>
</defs>

<rect x="40" y="40" width="600" height="600" rx="100" fill="#0a0e1a"/>

<g clip-path="url(#rc2)">

  <line x1="40" y1="180" x2="640" y2="180" stroke="#1a2a4a" stroke-width="1"/>
  <line x1="40" y1="340" x2="640" y2="340" stroke="#1a2a4a" stroke-width="1"/>
  <line x1="40" y1="500" x2="640" y2="500" stroke="#1a2a4a" stroke-width="1"/>
  <line x1="220" y1="40" x2="220" y2="640" stroke="#1a2a4a" stroke-width="1"/>
  <line x1="460" y1="40" x2="460" y2="640" stroke="#1a2a4a" stroke-width="1"/>

  <rect x="55" y="55" width="150" height="110" rx="8" fill="#0d1628" stroke="#1e3a5a" stroke-width="1"/>
  <polyline points="65,145 85,130 105,138 125,115 145,108 165,90 185,82 200,70"
    fill="none" stroke="#00e5ff" stroke-width="2.5" stroke-linecap="round" stroke-linejoin="round"/>
  <polyline points="65,155 85,148 105,152 125,138 145,132 165,118 185,110 200,98"
    fill="none" stroke="#26a69a" stroke-width="1.5" stroke-linecap="round" stroke-linejoin="round" stroke-dasharray="5,3"/>
  <text x="68" y="74" font-family="monospace" font-size="11" fill="#00e5ff" opacity="0.9">MA 50/200</text>

  <rect x="235" y="55" width="210" height="110" rx="8" fill="#0d1628" stroke="#1e3a5a" stroke-width="1"/>
  <rect x="248" y="110" width="22" height="44" rx="3" fill="#26a69a" opacity="0.7"/>
  <rect x="278" y="90" width="22" height="64" rx="3" fill="#26a69a" opacity="0.8"/>
  <rect x="308" y="75" width="22" height="79" rx="3" fill="#26a69a"/>
  <rect x="338" y="95" width="22" height="59" rx="3" fill="#ef5350" opacity="0.8"/>
  <rect x="368" y="80" width="22" height="74" rx="3" fill="#26a69a"/>
  <rect x="398" y="65" width="22" height="89" rx="3" fill="#26a69a"/>
  <text x="248" y="74" font-family="monospace" font-size="11" fill="#00e5ff" opacity="0.9">Volume</text>

  <rect x="475" y="55" width="150" height="110" rx="8" fill="#0d1628" stroke="#1e3a5a" stroke-width="1"/>
  <circle cx="550" cy="113" r="42" fill="none" stroke="#1e3a5a" stroke-width="12"/>
  <circle cx="550" cy="113" r="42" fill="none" stroke="#26a69a" stroke-width="12"
    stroke-dasharray="100 164" stroke-dashoffset="41" stroke-linecap="round"/>
  <circle cx="550" cy="113" r="42" fill="none" stroke="#00e5ff" stroke-width="12"
    stroke-dasharray="50 214" stroke-dashoffset="-59" stroke-linecap="round"/>
  <text x="550" y="108" text-anchor="middle" font-family="monospace" font-size="12" fill="#ffffff">RSI</text>
  <text x="550" y="122" text-anchor="middle" font-family="monospace" font-size="10" fill="#26a69a">62</text>
  <text x="488" y="74" font-family="monospace" font-size="11" fill="#00e5ff" opacity="0.9">Stoch RSI</text>

  <rect x="55" y="195" width="560" height="130" rx="8" fill="#0d1628" stroke="#1e3a5a" stroke-width="1"/>
  <text x="70" y="215" font-family="monospace" font-size="11" fill="#00e5ff" opacity="0.9">Preco principal</text>
  <rect x="70" y="225" width="12" height="40" rx="2" fill="#26a69a"/>
  <rect x="90" y="235" width="12" height="30" rx="2" fill="#26a69a"/>
  <rect x="110" y="220" width="12" height="50" rx="2" fill="#26a69a"/>
  <rect x="130" y="230" width="12" height="35" rx="2" fill="#ef5350"/>
  <rect x="150" y="215" width="12" height="55" rx="2" fill="#26a69a"/>
  <rect x="170" y="205" width="12" height="65" rx="2" fill="#26a69a"/>
  <rect x="190" y="218" width="12" height="47" rx="2" fill="#ef5350"/>
  <rect x="210" y="200" width="12" height="70" rx="2" fill="#26a69a"/>
  <polyline points="240,280 290,245 340,230 390,200 440,215 490,185 540,170 600,155"
    fill="none" stroke="#00e5ff" stroke-width="3" stroke-linecap="round" stroke-linejoin="round"/>
  <polyline points="240,285 290,258 340,248 390,225 440,238 490,215 540,202 600,190"
    fill="none" stroke="#f7931a" stroke-width="2" stroke-linecap="round" stroke-linejoin="round" opacity="0.8"/>

  <rect x="55" y="345" width="180" height="120" rx="8" fill="#0d1628" stroke="#1e3a5a" stroke-width="1"/>
  <text x="70" y="365" font-family="monospace" font-size="11" fill="#00e5ff" opacity="0.9">CVDD</text>
  <polyline points="65,445 95,430 125,410 155,390 185,370 215,355 225,348"
    fill="none" stroke="#26a69a" stroke-width="2.5" stroke-linecap="round" stroke-linejoin="round"/>
  <polyline points="65,455 95,442 125,425 155,408 185,390 215,378 225,370"
    fill="none" stroke="#ffffff" stroke-width="1.5" stroke-linecap="round" stroke-linejoin="round" opacity="0.4"/>
  <line x1="65" y1="405" x2="225" y2="405" stroke="#ef5350" stroke-width="1" stroke-dasharray="4,3" opacity="0.6"/>

  <rect x="255" y="345" width="180" height="120" rx="8" fill="#0d1628" stroke="#1e3a5a" stroke-width="1"/>
  <text x="270" y="365" font-family="monospace" font-size="11" fill="#00e5ff" opacity="0.9">ALMA</text>
  <polyline points="265,445 295,425 325,400 355,385 385,370 415,355 425,348"
    fill="none" stroke="#ab47bc" stroke-width="2.5" stroke-linecap="round" stroke-linejoin="round"/>
  <polyline points="265,450 295,435 325,418 355,400 385,388 415,375 425,368"
    fill="none" stroke="#26a69a" stroke-width="1.5" stroke-linecap="round" stroke-linejoin="round" opacity="0.7"/>

  <rect x="455" y="345" width="170" height="120" rx="8" fill="#0d1628" stroke="#1e3a5a" stroke-width="1"/>
  <text x="470" y="365" font-family="monospace" font-size="11" fill="#00e5ff" opacity="0.9">Sinal</text>
  <text x="540" y="418" text-anchor="middle" font-family="monospace" font-size="28" font-weight="bold" fill="#26a69a">&#9650;</text>
  <text x="540" y="448" text-anchor="middle" font-family="monospace" font-size="11" fill="#26a69a">ALTA</text>

  <rect x="55" y="485" width="560" height="115" rx="8" fill="#0d1628" stroke="#1e3a5a" stroke-width="1"/>
  <text x="70" y="505" font-family="monospace" font-size="11" fill="#00e5ff" opacity="0.9">Osciladores</text>
  <polyline points="65,570 105,545 145,555 185,530 225,515 265,535 305,510 345,495 385,515 425,490 465,475 505,490 545,465 590,455 620,448"
    fill="none" stroke="#ffd54f" stroke-width="2.5" stroke-linecap="round" stroke-linejoin="round"/>
  <line x1="65" y1="545" x2="620" y2="545" stroke="#ef5350" stroke-width="1" stroke-dasharray="6,4" opacity="0.5"/>
  <line x1="65" y1="510" x2="620" y2="510" stroke="#26a69a" stroke-width="1" stroke-dasharray="6,4" opacity="0.5"/>

</g>

<rect x="40" y="40" width="600" height="600" rx="100" fill="none" stroke="#00e5ff" stroke-width="4" opacity="0.6"/>
</svg>
